<?xml version="1.0" standalone="no"?>
<!DOCTYPE svg PUBLIC "-//W3C//DTD SVG 20010904//EN"
 "http://www.w3.org/TR/2001/REC-SVG-20010904/DTD/svg10.dtd">
<svg version="1.0" xmlns="http://www.w3.org/2000/svg"
 width="90.000000pt" height="90.000000pt" viewBox="0 0 90.000000 90.000000"
 preserveAspectRatio="xMidYMid meet">

<g transform="translate(0.000000,90.000000) scale(0.100000,-0.100000)"
fill="#000000" stroke="none">
<path d="M385 785 c-14 -13 -25 -36 -25 -50 0 -33 42 -75 75 -75 33 0 75 42
75 75 0 33 -42 75 -75 75 -14 0 -37 -11 -50 -25z"/>
<path d="M637 716 c-67 -61 -72 -64 -203 -103 -105 -31 -136 -37 -145 -27 -7
8 -7 14 1 19 38 23 -20 85 -80 85 -42 0 -90 -31 -90 -59 0 -22 26 -46 60 -56
14 -4 44 -21 68 -37 38 -27 48 -29 95 -23 l53 7 12 -65 c7 -35 12 -94 12 -130
l0 -66 -61 -65 c-60 -65 -72 -97 -37 -104 9 -2 55 27 102 65 73 58 86 73 91
105 8 44 15 46 61 17 23 -14 49 -48 80 -105 33 -61 51 -84 65 -84 33 0 33 27
-2 113 -23 59 -49 100 -91 148 -51 58 -60 75 -72 135 -8 38 -14 69 -13 70 79
43 211 173 205 200 -7 37 -42 25 -111 -40z"/>
</g>
</svg>
