<?xml version="1.0" standalone="no"?>
<!DOCTYPE svg PUBLIC "-//W3C//DTD SVG 20010904//EN"
 "http://www.w3.org/TR/2001/REC-SVG-20010904/DTD/svg10.dtd">
<svg version="1.0" xmlns="http://www.w3.org/2000/svg"
 width="100.000000pt" height="100.000000pt" viewBox="0 0 100.000000 100.000000"
 preserveAspectRatio="xMidYMid meet">

<g transform="translate(0.000000,100.000000) scale(0.100000,-0.100000)"
fill="#000000" stroke="none">
<path d="M451 946 c-87 -48 -50 -186 49 -186 51 0 100 49 100 99 0 75 -83 124
-149 87z m89 -46 c11 -11 20 -29 20 -40 0 -26 -34 -60 -60 -60 -26 0 -60 34
-60 60 0 11 9 29 20 40 11 11 29 20 40 20 11 0 29 -9 40 -20z"/>
<path d="M830 885 c-26 -32 13 -81 48 -59 34 22 22 74 -18 74 -10 0 -23 -7
-30 -15z"/>
<path d="M72 868 c-7 -7 -12 -18 -12 -25 0 -18 95 -78 191 -119 108 -46 107
-45 68 -63 -66 -31 -74 -106 -14 -133 24 -11 59 -5 121 19 11 4 14 -7 14 -50
0 -39 5 -62 19 -78 18 -23 18 -24 0 -77 -10 -30 -46 -91 -79 -134 -64 -86 -72
-116 -40 -148 42 -42 75 -27 159 74 34 42 66 76 71 76 4 0 29 -29 55 -65 25
-36 55 -69 65 -75 39 -21 90 10 90 53 0 8 -31 68 -69 132 -62 106 -68 121 -60
149 5 17 9 75 9 130 0 95 1 99 30 133 17 18 30 43 30 53 0 25 -34 60 -58 60
-10 0 -74 -20 -141 -45 -67 -25 -127 -45 -134 -45 -6 0 -52 31 -101 69 -92 69
-175 121 -192 121 -6 0 -15 -5 -22 -12z m605 -144 c3 -9 -6 -28 -26 -48 -31
-32 -31 -33 -31 -139 0 -152 -31 -231 -142 -363 -51 -61 -86 -94 -96 -92 -32
6 -22 35 37 112 39 50 67 99 81 141 l22 65 -21 26 c-17 21 -21 41 -21 95 0 37
-5 71 -10 74 -6 4 -40 -3 -76 -15 -72 -24 -97 -21 -92 12 2 18 30 31 173 84
94 35 176 63 183 63 7 1 15 -6 19 -15z m9 -505 c52 -88 60 -119 32 -119 -14 0
-118 141 -118 159 0 17 20 64 26 59 3 -3 30 -47 60 -99z"/>
</g>
</svg>
