<?xml version="1.0" standalone="no"?>
<!DOCTYPE svg PUBLIC "-//W3C//DTD SVG 20010904//EN"
 "http://www.w3.org/TR/2001/REC-SVG-20010904/DTD/svg10.dtd">
<svg version="1.0" xmlns="http://www.w3.org/2000/svg"
 width="90.000000pt" height="90.000000pt" viewBox="0 0 90.000000 90.000000"
 preserveAspectRatio="xMidYMid meet">

<g transform="translate(0.000000,90.000000) scale(0.100000,-0.100000)"
fill="#000000" stroke="none">
<path d="M565 785 c-14 -13 -25 -36 -25 -50 0 -33 42 -75 75 -75 14 0 37 11
50 25 14 13 25 36 25 50 0 14 -11 37 -25 50 -13 14 -36 25 -50 25 -14 0 -37
-11 -50 -25z"/>
<path d="M261 606 c-34 -35 -52 -60 -49 -72 6 -34 41 -27 83 16 38 39 85 54
100 31 3 -5 -11 -36 -30 -68 -19 -32 -35 -69 -35 -81 0 -16 23 -47 66 -92 l66
-68 9 -79 c12 -100 14 -105 41 -101 22 3 23 8 26 111 3 107 2 109 -28 150 -16
22 -30 46 -30 51 0 6 20 45 45 86 51 86 55 111 20 145 -22 23 -31 25 -127 25
l-104 0 -53 -54z"/>
<path d="M588 511 c-16 -29 -16 -30 8 -46 18 -12 44 -15 102 -13 75 3 77 4 77
28 0 24 -3 25 -67 28 -43 2 -71 8 -78 17 -17 21 -23 19 -42 -14z"/>
<path d="M274 345 c-16 -22 -32 -28 -99 -38 -75 -11 -80 -14 -80 -37 0 -25 1
-25 95 -28 l95 -3 35 36 34 35 -30 31 -31 31 -19 -27z"/>
</g>
</svg>
