<?xml version="1.0" standalone="no"?>
<!DOCTYPE svg PUBLIC "-//W3C//DTD SVG 20010904//EN"
 "http://www.w3.org/TR/2001/REC-SVG-20010904/DTD/svg10.dtd">
<svg version="1.0" xmlns="http://www.w3.org/2000/svg"
 width="96.000000pt" height="96.000000pt" viewBox="0 0 96.000000 96.000000"
 preserveAspectRatio="xMidYMid meet">

<g transform="translate(0.000000,96.000000) scale(0.100000,-0.100000)"
fill="#000000" stroke="none">
<path d="M389 811 c-20 -20 -29 -39 -29 -61 0 -43 47 -90 90 -90 43 0 90 47
90 90 0 22 -9 41 -29 61 -40 39 -82 39 -122 0z m86 -61 c0 -18 -6 -26 -23 -28
-24 -4 -38 18 -28 44 3 9 15 14 28 12 17 -2 23 -10 23 -28z"/>
<path d="M359 601 c-28 -29 -29 -32 -29 -136 0 -104 1 -107 29 -136 34 -34 51
-35 175 -13 48 8 89 14 91 12 1 -2 9 -21 17 -43 16 -41 33 -52 57 -36 13 8 13
15 1 51 -8 23 -23 54 -34 67 -18 23 -24 25 -72 19 -29 -3 -59 -9 -68 -12 -14
-5 -16 4 -16 65 l0 71 -30 0 -30 0 0 -76 0 -75 -27 3 -28 3 0 100 0 100 163 3
162 2 0 30 0 30 -166 0 -166 0 -29 -29z"/>
<path d="M328 243 c-3 -10 -26 -26 -54 -36 -74 -26 -77 -29 -63 -59 l11 -26
72 29 c96 40 121 74 71 97 -33 15 -32 15 -37 -5z"/>
<path d="M648 194 c-27 -14 -48 -42 -48 -63 0 -7 37 -11 105 -11 108 0 115 3
95 41 -24 44 -101 61 -152 33z"/>
</g>
</svg>
