<?xml version="1.0" standalone="no"?>
<!DOCTYPE svg PUBLIC "-//W3C//DTD SVG 20010904//EN"
 "http://www.w3.org/TR/2001/REC-SVG-20010904/DTD/svg10.dtd">
<svg version="1.0" xmlns="http://www.w3.org/2000/svg"
 width="96.000000pt" height="96.000000pt" viewBox="0 0 96.000000 96.000000"
 preserveAspectRatio="xMidYMid meet">

<g transform="translate(0.000000,96.000000) scale(0.100000,-0.100000)"
fill="#000000" stroke="none">
<path d="M304 928 c-62 -30 -61 -138 3 -167 56 -26 110 -6 133 48 34 83 -53
160 -136 119z"/>
<path d="M460 735 l-44 -45 -92 0 -93 0 -43 -130 -42 -130 41 -42 42 -42 101
19 101 19 67 -67 68 -67 42 43 42 43 -89 88 -88 88 -87 -18 c-47 -9 -89 -14
-92 -11 -3 3 0 23 7 46 l12 41 71 0 72 0 67 68 67 68 -38 37 c-21 20 -40 37
-43 37 -3 0 -25 -20 -49 -45z"/>
<path d="M660 682 c-75 -37 -104 -138 -60 -210 61 -100 211 -95 262 8 65 130
-72 267 -202 202z"/>
<path d="M269 297 c-96 -64 -87 -212 15 -261 101 -48 216 23 216 133 0 120
-133 194 -231 128z"/>
</g>
</svg>
