<?xml version="1.0" standalone="no"?>
<!DOCTYPE svg PUBLIC "-//W3C//DTD SVG 20010904//EN"
 "http://www.w3.org/TR/2001/REC-SVG-20010904/DTD/svg10.dtd">
<svg version="1.0" xmlns="http://www.w3.org/2000/svg"
 width="100.000000pt" height="100.000000pt" viewBox="0 0 100.000000 100.000000"
 preserveAspectRatio="xMidYMid meet">

<g transform="translate(0.000000,100.000000) scale(0.100000,-0.100000)"
fill="#000000" stroke="none">
<path d="M547 954 c-4 -4 -7 -42 -7 -84 l0 -76 -33 4 c-38 4 -87 -28 -87 -58
0 -25 46 -60 80 -60 15 0 39 9 54 21 24 19 26 26 26 99 l0 78 34 6 c18 4 41
15 51 26 22 24 13 56 -13 44 -21 -9 -62 -10 -83 0 -8 3 -18 3 -22 0z"/>
<path d="M225 735 c-50 -49 -15 -135 55 -135 41 0 80 39 80 80 0 41 -39 80
-80 80 -19 0 -40 -9 -55 -25z"/>
<path d="M665 735 c-16 -15 -25 -36 -25 -55 0 -19 9 -40 25 -55 49 -50 135
-15 135 55 0 19 -9 40 -25 55 -15 16 -36 25 -55 25 -19 0 -40 -9 -55 -25z"/>
<path d="M892 688 c-6 -7 -18 -32 -27 -55 -27 -67 -57 -73 -369 -73 l-261 0
-45 -30 -45 -30 -13 32 c-20 52 -28 63 -49 66 -11 2 -26 -4 -33 -13 -12 -14
-10 -28 11 -92 29 -90 46 -106 90 -80 17 9 34 15 38 12 4 -2 13 -35 20 -73 12
-67 14 -71 112 -180 98 -109 122 -125 147 -100 22 22 12 43 -68 133 -84 95
-95 134 -12 45 l47 -52 25 51 c31 67 22 85 -43 89 -39 3 -48 7 -51 25 -3 12
-9 43 -14 70 l-10 47 144 0 144 0 0 -25 c0 -13 -20 -63 -45 -110 -25 -47 -43
-90 -40 -95 8 -13 282 -13 290 0 3 5 -3 43 -14 83 -15 54 -19 84 -13 117 7 41
11 46 51 61 52 19 61 30 86 103 15 45 16 57 6 70 -16 19 -45 21 -59 4z"/>
<path d="M591 163 c-35 -57 -36 -79 -8 -97 21 -14 41 -2 66 39 18 29 18 31 -4
71 l-22 41 -32 -54z"/>
<path d="M650 209 c0 -6 20 -42 45 -80 45 -69 67 -83 93 -57 19 19 15 34 -24
93 -34 51 -40 55 -75 55 -22 0 -39 -5 -39 -11z"/>
</g>
</svg>
