<?xml version="1.0" standalone="no"?>
<!DOCTYPE svg PUBLIC "-//W3C//DTD SVG 20010904//EN"
 "http://www.w3.org/TR/2001/REC-SVG-20010904/DTD/svg10.dtd">
<svg version="1.0" xmlns="http://www.w3.org/2000/svg"
 width="100.000000pt" height="100.000000pt" viewBox="0 0 100.000000 100.000000"
 preserveAspectRatio="xMidYMid meet">

<g transform="translate(0.000000,100.000000) scale(0.100000,-0.100000)"
fill="#000000" stroke="none">
<path d="M309 675 c-69 -35 -131 -70 -138 -79 -19 -23 -6 -64 23 -72 16 -4 56
10 130 45 l106 50 27 -42 c14 -23 26 -47 27 -55 1 -7 -69 -56 -154 -108 l-156
-95 -38 16 c-21 9 -56 28 -78 42 -27 19 -42 23 -50 15 -14 -14 -4 -28 40 -56
87 -54 149 -70 277 -70 109 0 129 3 219 33 163 54 236 52 375 -11 42 -18 68
-25 74 -19 15 15 -7 36 -62 60 -69 29 -157 51 -208 51 -37 0 -43 3 -43 21 0
21 -182 317 -204 331 -21 14 -41 7 -167 -57z"/>
<path d="M751 626 c-87 -48 -50 -186 49 -186 51 0 100 49 100 99 0 75 -83 124
-149 87z"/>
</g>
</svg>
