<?xml version="1.0" standalone="no"?>
<!DOCTYPE svg PUBLIC "-//W3C//DTD SVG 20010904//EN"
 "http://www.w3.org/TR/2001/REC-SVG-20010904/DTD/svg10.dtd">
<svg version="1.0" xmlns="http://www.w3.org/2000/svg"
 width="90.000000pt" height="90.000000pt" viewBox="0 0 90.000000 90.000000"
 preserveAspectRatio="xMidYMid meet">

<g transform="translate(0.000000,90.000000) scale(0.100000,-0.100000)"
fill="#000000" stroke="none">
<path d="M389 751 c-20 -20 -29 -39 -29 -61 0 -22 9 -41 29 -61 20 -20 39 -29
61 -29 43 0 90 47 90 90 0 22 -9 41 -29 61 -40 39 -82 39 -122 0z"/>
<path d="M34 735 c-7 -18 -9 -14 49 -110 36 -59 64 -91 104 -120 93 -67 101
-77 108 -137 6 -48 3 -65 -25 -134 -33 -84 -33 -116 1 -135 35 -18 65 -2 119
66 28 36 55 65 60 65 4 0 32 -29 61 -65 56 -69 83 -84 118 -66 34 19 34 51 1
135 -27 68 -31 87 -25 133 7 60 7 59 97 128 50 38 78 69 115 130 52 87 60 118
28 123 -14 2 -38 -18 -83 -72 -55 -66 -71 -78 -136 -105 -67 -28 -85 -31 -176
-31 -90 0 -108 3 -176 32 -66 27 -82 40 -137 105 -60 71 -91 89 -103 58z"/>
</g>
</svg>
