<?xml version="1.0" standalone="no"?>
<!DOCTYPE svg PUBLIC "-//W3C//DTD SVG 20010904//EN"
 "http://www.w3.org/TR/2001/REC-SVG-20010904/DTD/svg10.dtd">
<svg version="1.0" xmlns="http://www.w3.org/2000/svg"
 width="90.000000pt" height="90.000000pt" viewBox="0 0 90.000000 90.000000"
 preserveAspectRatio="xMidYMid meet">

<g transform="translate(0.000000,90.000000) scale(0.100000,-0.100000)"
fill="#000000" stroke="none">
<path d="M175 755 c-14 -13 -25 -36 -25 -50 0 -33 42 -75 75 -75 33 0 75 42
75 75 0 33 -42 75 -75 75 -14 0 -37 -11 -50 -25z"/>
<path d="M595 755 c-14 -13 -25 -36 -25 -50 0 -33 42 -75 75 -75 14 0 37 11
50 25 14 13 25 36 25 50 0 14 -11 37 -25 50 -13 14 -36 25 -50 25 -14 0 -37
-11 -50 -25z"/>
<path d="M37 563 c-14 -13 -7 -45 11 -50 15 -4 43 -64 80 -170 2 -8 -13 -13
-45 -15 -44 -3 -48 -5 -48 -28 0 -24 3 -25 61 -28 l62 -3 21 -56 c12 -31 19
-58 17 -61 -3 -2 -28 3 -57 12 -60 20 -82 15 -77 -16 6 -45 150 -73 231 -44
31 11 43 11 75 0 47 -17 117 -17 165 0 31 11 43 11 75 0 80 -29 224 -1 230 44
5 31 -18 36 -72 18 -56 -19 -102 -21 -113 -3 -13 20 -131 332 -128 336 2 1 26
0 53 -4 47 -6 49 -8 69 -56 21 -48 21 -49 2 -49 -24 0 -24 -6 2 -69 l22 -51
94 0 c74 0 95 3 99 15 9 22 -97 255 -122 272 -16 10 -54 13 -155 11 -132 -3
-134 -3 -137 -26 -3 -16 2 -25 15 -28 16 -5 42 -59 81 -172 3 -10 -9 -12 -54
-10 l-58 3 -43 100 c-24 55 -53 108 -65 118 -17 14 -41 17 -152 17 -73 0 -136
-3 -139 -7z m169 -76 c1 -1 11 -23 22 -49 20 -47 21 -48 1 -48 -23 0 -24 4 2
-64 l22 -56 162 0 162 0 17 -43 c21 -55 20 -60 -4 -52 -10 3 -40 -1 -65 -9
-58 -20 -92 -20 -150 -1 -41 14 -49 14 -91 0 -26 -9 -48 -14 -49 -13 -2 2 -53
136 -126 327 -9 24 -9 24 43 17 29 -4 53 -8 54 -9z"/>
</g>
</svg>
